<svg width="34" height="34" viewBox="0 0 34 34" fill="none" xmlns="http://www.w3.org/2000/svg">
<rect x="0.5" y="0.5" width="33" height="33" rx="9.5" stroke="#262626"/>
<path d="M16.808 8.8421C12.2212 8.8421 8.45703 12.6062 8.45703 17.193C8.45703 21.1072 11.2036 24.6627 14.8507 25.544V22.7811C14.4893 22.8603 14.1568 22.8626 13.7889 22.7541C13.2954 22.6085 12.8944 22.2797 12.5967 21.7784C12.407 21.4583 12.0707 21.1112 11.7199 21.1367L11.6339 20.1619C12.3924 20.0969 13.0487 20.6241 13.4382 21.2786C13.6113 21.5696 13.8104 21.7402 14.066 21.8156C14.3131 21.8884 14.5784 21.8535 14.8875 21.7443C14.9651 21.1254 15.2487 20.8937 15.4629 20.5675V20.567C13.2877 20.2426 12.4208 19.0886 12.0768 18.1778C11.6209 16.9684 11.8655 15.4575 12.6717 14.5027C12.6874 14.4841 12.7157 14.4354 12.7048 14.4014C12.3351 13.2848 12.7855 12.3611 12.8021 12.2631C13.2287 12.3892 13.298 12.1362 14.6553 12.9607L14.8898 13.1017C14.988 13.1602 14.9571 13.1268 15.0552 13.1194C15.6219 12.9655 16.2193 12.8805 16.8078 12.8728C17.4009 12.8805 17.9944 12.9655 18.5845 13.1256L18.6605 13.1333C18.6539 13.1323 18.6811 13.1284 18.7269 13.1012C20.4223 12.0742 20.3614 12.4099 20.816 12.2621C20.8324 12.3602 21.2769 13.2989 20.9112 14.4014C20.8619 14.5533 22.381 15.9444 21.539 18.1774C21.195 19.0886 20.3282 20.2426 18.1531 20.567V20.5675C18.4319 20.9925 18.7669 21.2185 18.7651 22.0952V25.544C22.4124 24.6627 25.1588 21.1072 25.1588 17.193C25.1589 12.6062 21.3948 8.8421 16.808 8.8421Z" fill="white"/>
</svg>
