<svg width="18" height="17" viewBox="0 0 18 17" fill="none" xmlns="http://www.w3.org/2000/svg">
<path d="M8.80797 0C4.22117 0 0.457031 3.76414 0.457031 8.35094C0.457031 12.2651 3.20355 15.8206 6.85072 16.7019V13.939C6.48934 14.0182 6.15676 14.0205 5.78889 13.912C5.29537 13.7664 4.89436 13.4376 4.59669 12.9363C4.40696 12.6162 4.07068 12.2691 3.71988 12.2946L3.63387 11.3198C4.39243 11.2548 5.04867 11.782 5.43821 12.4364C5.61125 12.7275 5.81042 12.8981 6.06604 12.9735C6.31311 13.0463 6.57841 13.0114 6.88755 12.9022C6.96515 12.2833 7.24867 12.0516 7.46287 11.7254V11.7249C5.28772 11.4005 4.42085 10.2465 4.0768 9.33568C3.62087 8.12629 3.86553 6.61541 4.67175 5.66061C4.68742 5.64201 4.71571 5.59333 4.70475 5.55931C4.33509 4.44268 4.78554 3.51898 4.8021 3.42099C5.22872 3.54714 5.29804 3.29407 6.65525 4.11864L6.88984 4.25957C6.98796 4.31806 6.95712 4.28467 7.05524 4.27728C7.6219 4.12335 8.21927 4.03836 8.80784 4.03072C9.40088 4.03836 9.99443 4.12335 10.5845 4.28353L10.6605 4.29117C10.6539 4.29015 10.6811 4.28633 10.7269 4.25906C12.4223 3.23214 12.3614 3.56778 12.816 3.41997C12.8324 3.51808 13.2769 4.45683 12.9112 5.55931C12.8619 5.7112 14.381 7.1023 13.539 9.3353C13.195 10.2465 12.3282 11.4005 10.1531 11.7249V11.7254C10.4319 12.1504 10.7669 12.3764 10.7651 13.2531V16.7019C14.4124 15.8206 17.1588 12.2651 17.1588 8.35094C17.1589 3.76414 13.3948 0 8.80797 0Z" fill="#141414"/>
</svg>
