<svg width="1155" height="1154" viewBox="0 0 1155 1154" fill="none" xmlns="http://www.w3.org/2000/svg">
<path d="M958.68 1154C958.465 1154 958.296 1153.83 958.296 1153.62V0.386364C958.296 0.171094 958.465 0.00195312 958.68 0.00195312C958.896 0.00195312 959.065 0.171094 959.065 0.386364V1153.62C959.065 1153.83 958.896 1154 958.68 1154Z" fill="white" fill-opacity="0.2"/>
<path d="M993.851 1154C993.636 1154 993.467 1153.83 993.467 1153.62V0.386364C993.467 0.171094 993.636 0.00195312 993.851 0.00195312C994.066 0.00195312 994.236 0.171094 994.236 0.386364V1153.62C994.236 1153.83 994.066 1154 993.851 1154Z" fill="white" fill-opacity="0.2"/>
<rect x="1" width="1155" height="1154" fill="#181818"/>
<rect width="326" height="1154" transform="matrix(-1 0 0 1 1155 0)" fill="url(#paint0_linear_3230_20)"/>
<path d="M374.526 267.951C374.395 267.951 374.28 267.89 374.203 267.782L195.936 0.601433C195.821 0.424604 195.867 0.186269 196.044 0.0709461C196.221 -0.044377 196.459 0.00175226 196.574 0.178581L374.733 267.182L787.098 267.167L965.08 0.170893C965.195 -0.00593596 965.434 -0.0520652 965.611 0.0632579C965.787 0.178581 965.833 0.416916 965.718 0.593744L787.621 267.759C787.552 267.867 787.429 267.928 787.298 267.928L374.526 267.944V267.951Z" fill="white" fill-opacity="0.2"/>
<path d="M374.525 216.356C374.387 216.356 374.264 216.279 374.195 216.164L250.906 0.579075C250.799 0.394558 250.868 0.163912 251.053 0.0562766C251.237 -0.0513583 251.468 0.0178356 251.575 0.202353L374.756 215.595L787.082 215.58L910.124 0.194664C910.232 0.0101474 910.463 -0.0513583 910.647 0.0485884C910.832 0.156223 910.893 0.38687 910.793 0.571387L787.636 216.141C787.567 216.264 787.444 216.333 787.305 216.333L374.533 216.349L374.525 216.356Z" fill="white" fill-opacity="0.2"/>
<path d="M374.525 164.76C374.379 164.76 374.249 164.675 374.179 164.545L292.131 0.555179C292.039 0.362974 292.116 0.132328 292.3 0.0400696C292.492 -0.0521889 292.723 0.0246932 292.815 0.20921L374.764 163.983L787.059 163.968L868.923 0.216898C869.016 0.0246932 869.246 -0.0521889 869.438 0.0477578C869.631 0.140016 869.708 0.370662 869.608 0.562868L787.644 164.529C787.582 164.66 787.444 164.745 787.298 164.745L374.525 164.76Z" fill="white" fill-opacity="0.2"/>
<path d="M63.1452 1154C62.9299 1154 62.7607 1153.83 62.7607 1153.62V0.386364C62.7607 0.171094 62.9299 0.00195312 63.1452 0.00195312C63.3604 0.00195312 63.5296 0.171094 63.5296 0.386364V1153.62C63.5296 1153.83 63.3604 1154 63.1452 1154Z" fill="white" fill-opacity="0.2"/>
<path d="M113.272 1154C113.057 1154 112.888 1153.83 112.888 1153.62V0.386364C112.888 0.171094 113.057 0.00195312 113.272 0.00195312C113.487 0.00195312 113.657 0.171094 113.657 0.386364V1153.62C113.657 1153.83 113.487 1154 113.272 1154Z" fill="white" fill-opacity="0.2"/>
<path d="M160.988 1154C160.773 1154 160.604 1153.83 160.604 1153.62V0.386364C160.604 0.171094 160.773 0.00195312 160.988 0.00195312C161.203 0.00195312 161.372 0.171094 161.372 0.386364V1153.62C161.372 1153.83 161.203 1154 160.988 1154Z" fill="white" fill-opacity="0.2"/>
<path d="M191.988 1154C191.773 1154 191.604 1153.83 191.604 1153.62V0.386364C191.604 0.171094 191.773 0.00195312 191.988 0.00195312C192.203 0.00195312 192.372 0.171094 192.372 0.386364V1153.62C192.372 1153.83 192.203 1154 191.988 1154Z" fill="white" fill-opacity="0.2"/>
<path d="M220.988 1154C220.773 1154 220.604 1153.83 220.604 1153.62V0.386364C220.604 0.171094 220.773 0.00195312 220.988 0.00195312C221.203 0.00195312 221.372 0.171094 221.372 0.386364V1153.62C221.372 1153.83 221.203 1154 220.988 1154Z" fill="white" fill-opacity="0.2"/>
<path d="M247.988 1154C247.773 1154 247.604 1153.83 247.604 1153.62V0.386364C247.604 0.171094 247.773 0.00195312 247.988 0.00195312C248.203 0.00195312 248.372 0.171094 248.372 0.386364V1153.62C248.372 1153.83 248.203 1154 247.988 1154Z" fill="white" fill-opacity="0.2"/>
<path d="M271.988 1154C271.773 1154 271.604 1153.83 271.604 1153.62V0.386364C271.604 0.171094 271.773 0.00195312 271.988 0.00195312C272.203 0.00195312 272.372 0.171094 272.372 0.386364V1153.62C272.372 1153.83 272.203 1154 271.988 1154Z" fill="white" fill-opacity="0.2"/>
<path d="M293.988 1154C293.773 1154 293.604 1153.83 293.604 1153.62V0.386364C293.604 0.171094 293.773 0.00195312 293.988 0.00195312C294.203 0.00195312 294.372 0.171094 294.372 0.386364V1153.62C294.372 1153.83 294.203 1154 293.988 1154Z" fill="white" fill-opacity="0.2"/>
<path d="M313.988 1154C313.773 1154 313.604 1153.83 313.604 1153.62V0.386364C313.604 0.171094 313.773 0.00195312 313.988 0.00195312C314.203 0.00195312 314.372 0.171094 314.372 0.386364V1153.62C314.372 1153.83 314.203 1154 313.988 1154Z" fill="white" fill-opacity="0.2"/>
<path d="M331.988 1154C331.773 1154 331.604 1153.83 331.604 1153.62V0.386364C331.604 0.171094 331.773 0.00195312 331.988 0.00195312C332.203 0.00195312 332.372 0.171094 332.372 0.386364V1153.62C332.372 1153.83 332.203 1154 331.988 1154Z" fill="white" fill-opacity="0.2"/>
<path d="M348.129 1154C347.913 1154 347.744 1153.83 347.744 1153.62V0.386364C347.744 0.171094 347.913 0.00195312 348.129 0.00195312C348.344 0.00195312 348.513 0.171094 348.513 0.386364V1153.62C348.513 1153.83 348.344 1154 348.129 1154Z" fill="white" fill-opacity="0.2"/>
<path d="M362.525 1154C362.31 1154 362.141 1153.83 362.141 1153.62V0.386364C362.141 0.171094 362.31 0.00195312 362.525 0.00195312C362.74 0.00195312 362.909 0.171094 362.909 0.386364V1153.62C362.909 1153.83 362.74 1154 362.525 1154Z" fill="white" fill-opacity="0.2"/>
<path d="M374.525 1154C374.31 1154 374.141 1153.83 374.141 1153.62V0.386364C374.141 0.171094 374.31 0.00195312 374.525 0.00195312C374.74 0.00195312 374.909 0.171094 374.909 0.386364V1153.62C374.909 1153.83 374.74 1154 374.525 1154Z" fill="white" fill-opacity="0.2"/>
<path d="M426.129 1154C425.913 1154 425.744 1153.83 425.744 1153.62V0.386364C425.744 0.171094 425.913 0.00195312 426.129 0.00195312C426.344 0.00195312 426.513 0.171094 426.513 0.386364V1153.62C426.513 1153.83 426.344 1154 426.129 1154Z" fill="white" fill-opacity="0.2"/>
<path d="M477.724 1154C477.509 1154 477.34 1153.83 477.34 1153.62V0.386364C477.34 0.171094 477.509 0.00195312 477.724 0.00195312C477.94 0.00195312 478.109 0.171094 478.109 0.386364V1153.62C478.109 1153.83 477.94 1154 477.724 1154Z" fill="white" fill-opacity="0.2"/>
<path d="M530.129 1154C529.913 1154 529.744 1153.83 529.744 1153.62V0.386364C529.744 0.171094 529.913 0.00195312 530.129 0.00195312C530.344 0.00195312 530.513 0.171094 530.513 0.386364V1153.62C530.513 1153.83 530.344 1154 530.129 1154Z" fill="white" fill-opacity="0.2"/>
<path d="M633.916 1154C633.7 1154 633.531 1153.83 633.531 1153.62V0.386364C633.531 0.171094 633.7 0.00195312 633.916 0.00195312C634.131 0.00195312 634.3 0.171094 634.3 0.386364V1153.62C634.3 1153.83 634.131 1154 633.916 1154Z" fill="white" fill-opacity="0.2"/>
<path d="M685.504 1154C685.288 1154 685.119 1153.83 685.119 1153.62V0.386364C685.119 0.171094 685.288 0.00195312 685.504 0.00195312C685.719 0.00195312 685.888 0.171094 685.888 0.386364V1153.62C685.888 1153.83 685.719 1154 685.504 1154Z" fill="white" fill-opacity="0.2"/>
<path d="M737.099 1154C736.884 1154 736.715 1153.83 736.715 1153.62V0.386364C736.715 0.171094 736.884 0.00195312 737.099 0.00195312C737.315 0.00195312 737.484 0.171094 737.484 0.386364V1153.62C737.484 1153.83 737.315 1154 737.099 1154Z" fill="white" fill-opacity="0.2"/>
<path d="M788.083 1154C787.867 1154 787.698 1153.83 787.698 1153.62V0.386364C787.698 0.171094 787.867 0.00195312 788.083 0.00195312C788.298 0.00195312 788.467 0.171094 788.467 0.386364V1153.62C788.467 1153.83 788.298 1154 788.083 1154Z" fill="white" fill-opacity="0.2"/>
<path d="M788.099 1154C787.884 1154 787.715 1153.83 787.715 1153.62V0.386364C787.715 0.171094 787.884 0.00195312 788.099 0.00195312C788.315 0.00195312 788.484 0.171094 788.484 0.386364V1153.62C788.484 1153.83 788.315 1154 788.099 1154Z" fill="white" fill-opacity="0.2"/>
<path d="M801.706 1154C801.49 1154 801.321 1153.83 801.321 1153.62V0.386364C801.321 0.171094 801.49 0.00195312 801.706 0.00195312C801.921 0.00195312 802.09 0.171094 802.09 0.386364V1153.62C802.09 1153.83 801.921 1154 801.706 1154Z" fill="white" fill-opacity="0.2"/>
<path d="M816.906 1154C816.691 1154 816.521 1153.83 816.521 1153.62V0.386364C816.521 0.171094 816.691 0.00195312 816.906 0.00195312C817.121 0.00195312 817.29 0.171094 817.29 0.386364V1153.62C817.29 1153.83 817.121 1154 816.906 1154Z" fill="white" fill-opacity="0.2"/>
<path d="M833.965 1154C833.75 1154 833.581 1153.83 833.581 1153.62V0.386364C833.581 0.171094 833.75 0.00195312 833.965 0.00195312C834.181 0.00195312 834.35 0.171094 834.35 0.386364V1153.62C834.35 1153.83 834.181 1154 833.965 1154Z" fill="white" fill-opacity="0.2"/>
<path d="M853.271 1154C853.056 1154 852.887 1153.83 852.887 1153.62V0.386364C852.887 0.171094 853.056 0.00195312 853.271 0.00195312C853.486 0.00195312 853.656 0.171094 853.656 0.386364V1153.62C853.656 1153.83 853.486 1154 853.271 1154Z" fill="white" fill-opacity="0.2"/>
<path d="M869.275 1154C869.06 1154 868.891 1153.83 868.891 1153.62V0.386364C868.891 0.171094 869.06 0.00195312 869.275 0.00195312C869.49 0.00195312 869.659 0.171094 869.659 0.386364V1153.62C869.659 1153.83 869.49 1154 869.275 1154Z" fill="white" fill-opacity="0.2"/>
<path d="M894.591 1154C894.376 1154 894.207 1153.83 894.207 1153.62V0.386364C894.207 0.171094 894.376 0.00195312 894.591 0.00195312C894.807 0.00195312 894.976 0.171094 894.976 0.386364V1153.62C894.976 1153.83 894.807 1154 894.591 1154Z" fill="white" fill-opacity="0.2"/>
<path d="M924.03 1154C923.815 1154 923.646 1153.83 923.646 1153.62V0.386364C923.646 0.171094 923.815 0.00195312 924.03 0.00195312C924.245 0.00195312 924.414 0.171094 924.414 0.386364V1153.62C924.414 1153.83 924.245 1154 924.03 1154Z" fill="white" fill-opacity="0.2"/>
<path d="M374.526 319.54C374.41 319.54 374.303 319.486 374.226 319.393L118.97 0.625025C118.839 0.455884 118.862 0.21755 119.031 0.0868504C119.193 -0.0438491 119.439 -0.0207845 119.569 0.148356L374.71 318.771H787.113L1042.02 0.148356C1042.15 -0.0130963 1042.39 -0.0438491 1042.55 0.0868504C1042.72 0.21755 1042.75 0.463573 1042.62 0.625025L787.605 319.386C787.536 319.478 787.421 319.532 787.306 319.532H374.526V319.54Z" fill="white" fill-opacity="0.2"/>
<path d="M362.525 9.97333C362.364 9.97333 362.218 9.87339 362.164 9.71962L358.82 0.516838C358.751 0.316944 358.85 0.0939863 359.05 0.0247924C359.25 -0.0444015 359.473 0.0555453 359.542 0.255439L362.795 9.20451L775.029 9.18145L778.265 0.255439C778.334 0.0555453 778.557 -0.0444015 778.757 0.0247924C778.957 0.0939863 779.057 0.316944 778.988 0.516838L775.659 9.69656C775.605 9.85032 775.459 9.95027 775.298 9.95027L362.525 9.97333Z" fill="white" fill-opacity="0.2"/>
<path d="M374.525 371.142C374.426 371.142 374.326 371.104 374.256 371.027L4.11532 1.27786C3.96156 1.13178 3.96156 0.88576 4.11532 0.731996C4.26909 0.578231 4.50742 0.578231 4.66119 0.731996L374.695 370.366L787.152 370.35L1157.35 0.216886C1157.5 0.0631215 1157.74 0.0631215 1157.89 0.216886C1158.05 0.37065 1158.05 0.608984 1157.89 0.762748L787.574 371.019C787.505 371.088 787.405 371.134 787.305 371.134L374.533 371.15L374.525 371.142Z" fill="white" fill-opacity="0.2"/>
<path d="M374.384 1155C374.169 1155 374 1154.83 374 1154.62V1.38636C374 1.17109 374.169 1.00195 374.384 1.00195C374.6 1.00195 374.769 1.17109 374.769 1.38636V1154.62C374.769 1154.83 374.6 1155 374.384 1155Z" fill="white" fill-opacity="0.2"/>
<path d="M582.312 1155C582.097 1155 581.928 1154.83 581.928 1154.62V1.38636C581.928 1.17109 582.097 1.00195 582.312 1.00195C582.527 1.00195 582.697 1.17109 582.697 1.38636V1154.62C582.697 1154.83 582.527 1155 582.312 1155Z" fill="white" fill-opacity="0.2"/>
<path d="M374.526 422.73C374.441 422.73 374.364 422.7 374.295 422.653L4.15403 145.401C3.98489 145.271 3.94645 145.032 4.07715 144.863C4.20785 144.694 4.44618 144.656 4.61532 144.786L374.656 421.962H787.175L1157.39 144.394C1157.55 144.271 1157.79 144.302 1157.92 144.471C1158.05 144.64 1158.02 144.879 1157.85 145.009L787.529 422.646C787.459 422.692 787.383 422.723 787.298 422.723H374.526V422.73Z" fill="white" fill-opacity="0.2"/>
<path d="M245 156.002L375.5 319.502H530V370.502" stroke="url(#paint1_linear_3230_20)" stroke-width="2"/>
<path d="M374.525 474.326C374.464 474.326 374.41 474.311 374.356 474.288L4.21496 289.532C4.02276 289.44 3.94588 289.21 4.04582 289.017C4.13808 288.825 4.36873 288.748 4.56093 288.848L374.625 473.557H787.213L1157.45 288.579C1157.64 288.487 1157.87 288.564 1157.96 288.748C1158.05 288.94 1157.98 289.171 1157.79 289.263L787.474 474.272C787.42 474.295 787.359 474.311 787.305 474.311H374.525V474.326Z" fill="white" fill-opacity="0.2"/>
<path d="M374.526 525.921C374.526 525.921 374.464 525.921 374.433 525.914L4.29234 433.655C4.08475 433.601 3.96174 433.394 4.01556 433.186C4.06938 432.979 4.27696 432.856 4.48454 432.909L374.579 525.152H787.259L1157.53 432.771C1157.74 432.717 1157.95 432.848 1158 433.048C1158.05 433.255 1157.92 433.463 1157.72 433.517L787.405 525.906C787.405 525.906 787.344 525.914 787.313 525.914H374.526V525.921Z" fill="white" fill-opacity="0.2"/>
<path d="M162.5 786.502L374.5 680.502H477.5V525.002" stroke="url(#paint2_linear_3230_20)" stroke-width="2"/>
<path d="M975 675L789.038 629.154H685V526" stroke="url(#paint3_linear_3230_20)" stroke-width="2"/>
<path d="M4.38441 577.755C4.16914 577.755 4 577.586 4 577.371C4 577.156 4.16914 576.986 4.38441 576.986L374.525 576.748H787.298L1157.62 576.979C1157.83 576.979 1158 577.148 1158 577.363C1158 577.578 1157.83 577.748 1157.62 577.748L787.298 577.517H374.525L4.38441 577.755Z" fill="white" fill-opacity="0.2"/>
<path d="M1157.62 721.963C1157.62 721.963 1157.55 721.963 1157.52 721.956L787.259 629.113H374.579L4.47626 721.84C4.26867 721.886 4.06109 721.771 4.00727 721.563C3.95346 721.356 4.08416 721.148 4.28405 721.094L374.425 628.359C374.425 628.359 374.487 628.352 374.517 628.352H787.29C787.29 628.352 787.351 628.352 787.382 628.359L1157.7 721.21C1157.91 721.264 1158.03 721.471 1157.98 721.679C1157.93 721.856 1157.78 721.971 1157.6 721.971L1157.62 721.963Z" fill="white" fill-opacity="0.2"/>
<path d="M1157.62 866.186C1157.55 866.186 1157.5 866.171 1157.45 866.148L787.213 680.716H374.617L4.55323 865.902C4.36102 865.994 4.13037 865.917 4.03812 865.733C3.94586 865.541 4.02274 865.31 4.20726 865.218L374.348 679.986C374.402 679.963 374.464 679.947 374.517 679.947H787.29C787.351 679.947 787.405 679.963 787.459 679.986L1157.78 865.464C1157.97 865.556 1158.05 865.787 1157.95 865.979C1157.88 866.117 1157.75 866.194 1157.6 866.194L1157.62 866.186Z" fill="white" fill-opacity="0.2"/>
<path d="M1157.62 1010.4C1157.54 1010.4 1157.45 1010.38 1157.39 1010.32L787.175 732.304H374.656L4.61532 1009.96C4.44618 1010.09 4.20785 1010.05 4.07715 1009.88C3.94645 1009.71 3.98489 1009.47 4.15403 1009.34L374.295 731.612C374.364 731.558 374.441 731.535 374.526 731.535H787.298C787.383 731.535 787.459 731.566 787.529 731.62L1157.84 1009.72C1158.01 1009.85 1158.05 1010.09 1157.92 1010.26C1157.84 1010.36 1157.72 1010.41 1157.61 1010.41L1157.62 1010.4Z" fill="white" fill-opacity="0.2"/>
<path d="M1156.99 1154C1156.89 1154 1156.79 1153.96 1156.72 1153.89L787.144 783.9H374.687L4.77642 1153.89C4.62266 1154.04 4.38432 1154.04 4.23056 1153.89C4.07679 1153.73 4.07679 1153.49 4.23056 1153.34L374.249 783.238C374.318 783.169 374.418 783.123 374.518 783.123H787.29C787.39 783.123 787.49 783.162 787.559 783.238L1157.25 1153.34C1157.41 1153.49 1157.41 1153.73 1157.25 1153.89C1157.18 1153.96 1157.08 1154 1156.99 1154H1156.99Z" fill="white" fill-opacity="0.2"/>
<path d="M119.746 1154C119.661 1154 119.577 1153.97 119.508 1153.92C119.339 1153.79 119.316 1153.54 119.446 1153.38L374.226 834.873C374.295 834.78 374.41 834.727 374.526 834.727H787.298C787.413 834.727 787.528 834.788 787.598 834.873L1042.15 1153.37C1042.28 1153.54 1042.26 1153.78 1042.09 1153.91C1041.92 1154.04 1041.69 1154.02 1041.55 1153.85L787.113 835.488H374.71L120.046 1153.85C119.969 1153.94 119.861 1153.99 119.746 1153.99V1154Z" fill="white" fill-opacity="0.2"/>
<path d="M196.589 1154C196.52 1154 196.443 1153.98 196.374 1153.94C196.197 1153.82 196.151 1153.59 196.266 1153.41L374.21 886.498C374.279 886.391 374.402 886.329 374.533 886.329L787.305 886.344C787.436 886.344 787.551 886.406 787.628 886.514L965.402 1153.42C965.518 1153.59 965.471 1153.83 965.295 1153.95C965.118 1154.06 964.88 1154.02 964.764 1153.84L787.105 887.106L374.74 887.09L196.912 1153.83C196.835 1153.94 196.72 1154 196.589 1154Z" fill="white" fill-opacity="0.2"/>
<path d="M251.484 1154C251.414 1154 251.353 1153.99 251.291 1153.95C251.107 1153.84 251.045 1153.61 251.145 1153.43L374.187 938.109C374.257 937.986 374.38 937.917 374.518 937.917H787.29C787.429 937.917 787.559 937.994 787.621 938.117L910.548 1153.43C910.655 1153.61 910.586 1153.84 910.401 1153.95C910.217 1154.05 909.986 1153.99 909.879 1153.8L787.067 938.686H374.749L251.814 1153.8C251.745 1153.92 251.614 1153.99 251.484 1153.99V1154Z" fill="white" fill-opacity="0.2"/>
<path d="M870.085 1154C869.946 1154 869.808 1153.92 869.739 1153.79L788.059 990.289H375.764L294 1153.79C293.907 1153.98 293.677 1154.06 293.484 1153.96C293.292 1153.86 293.215 1153.63 293.315 1153.44L375.187 989.72C375.249 989.589 375.387 989.505 375.533 989.505H788.305C788.451 989.513 788.582 989.597 788.651 989.728L870.438 1153.44C870.531 1153.63 870.454 1153.86 870.269 1153.96C870.215 1153.99 870.154 1153.99 870.1 1153.99L870.085 1154Z" fill="white" fill-opacity="0.2"/>
<rect width="302" height="1154" fill="url(#paint4_linear_3230_20)"/>
<defs>
<linearGradient id="paint0_linear_3230_20" x1="-8.20844e-06" y1="646.994" x2="361.015" y2="646.994" gradientUnits="userSpaceOnUse">
    <stop stop-color="#181818"/>
    <stop offset="1" stop-color="#181818" stop-opacity="0"/>
    <animate 
      attributeName="x1"
      values="-100;461;-100"
      dur="15s"
      repeatCount="indefinite"/>
    <animate 
      attributeName="y1"
      values="646;846;646"
      dur="18s"
      repeatCount="indefinite"/>
    <animate 
      attributeName="x2"
      values="361;-100;361"
      dur="15s"
      repeatCount="indefinite"/>
    <animate 
      attributeName="y2"
      values="846;646;846"
      dur="18s"
      repeatCount="indefinite"/>
</linearGradient>

<linearGradient id="paint1_linear_3230_20" x1="387.5" y1="156.002" x2="387.5" y2="370.502" gradientUnits="userSpaceOnUse">
    <stop offset="0.015" stop-color="#3A3A3A"/>
    <stop offset="0.52" stop-color="#D13F59"/>
    <stop offset="0.97" stop-color="#6659A6"/>
    <animate 
      attributeName="x1"
      values="287;487;287"
      dur="20s"
      repeatCount="indefinite"/>
    <animate 
      attributeName="y1"
      values="56;470;56"
      dur="17s"
      repeatCount="indefinite"/>
    <animate 
      attributeName="x2"
      values="487;287;487"
      dur="20s"
      repeatCount="indefinite"/>
    <animate 
      attributeName="y2"
      values="470;56;470"
      dur="17s"
      repeatCount="indefinite"/>
</linearGradient>

<linearGradient id="paint2_linear_3230_20" x1="320" y1="525.002" x2="320" y2="786.502" gradientUnits="userSpaceOnUse">
    <stop stop-color="#D13F59"/>
    <stop offset="0.48" stop-color="#6659A6"/>
    <stop offset="0.985" stop-color="#3E3E3E"/>
    <animate 
      attributeName="x1"
      values="220;420;220"
      dur="22s"
      repeatCount="indefinite"/>
    <animate 
      attributeName="y1"
      values="425;886;425"
      dur="19s"
      repeatCount="indefinite"/>
    <animate 
      attributeName="x2"
      values="420;220;420"
      dur="22s"
      repeatCount="indefinite"/>
    <animate 
      attributeName="y2"
      values="886;425;886"
      dur="19s"
      repeatCount="indefinite"/>
</linearGradient>

<linearGradient id="paint3_linear_3230_20" x1="830" y1="526" x2="830" y2="675" gradientUnits="userSpaceOnUse">
    <stop stop-color="#D13F59"/>
    <stop offset="0.475" stop-color="#6659A6"/>
    <stop offset="0.995" stop-color="#333333"/>
    <animate 
      attributeName="x1"
      values="730;930;730"
      dur="16s"
      repeatCount="indefinite"/>
    <animate 
      attributeName="y1"
      values="426;775;426"
      dur="14s"
      repeatCount="indefinite"/>
    <animate 
      attributeName="x2"
      values="930;730;930"
      dur="16s"
      repeatCount="indefinite"/>
    <animate 
      attributeName="y2"
      values="775;426;775"
      dur="14s"
      repeatCount="indefinite"/>
</linearGradient>

</defs>
</svg>
