<svg width="34" height="34" viewBox="0 0 34 34" fill="none" xmlns="http://www.w3.org/2000/svg">
<rect width="34" height="34" rx="10" fill="url(#paint0_linear_2001_2)"/>
<path d="M25.1994 13.6193C25.0069 12.9038 24.4428 12.3398 23.7274 12.1472C22.4205 11.7895 17.1925 11.7895 17.1925 11.7895C17.1925 11.7895 11.9647 11.7895 10.6577 12.1335C9.95612 12.3261 9.37825 12.9039 9.18571 13.6193C8.8418 14.9262 8.8418 17.6365 8.8418 17.6365C8.8418 17.6365 8.8418 20.3604 9.18571 21.6536C9.37838 22.369 9.94236 22.9331 10.6578 23.1257C11.9785 23.4834 17.1926 23.4834 17.1926 23.4834C17.1926 23.4834 22.4205 23.4834 23.7274 23.1394C24.4429 22.9468 25.0069 22.3827 25.1996 21.6674C25.5435 20.3604 25.5435 17.6502 25.5435 17.6502C25.5435 17.6502 25.5572 14.9262 25.1994 13.6193Z" fill="white"/>
<path d="M15.5271 20.1404L19.8744 17.6365L15.5271 15.1326V20.1404Z" fill="#9A4A94"/>
<defs>
<linearGradient id="paint0_linear_2001_2" x1="0" y1="17" x2="34" y2="17" gradientUnits="userSpaceOnUse">
<stop stop-color="#D73E53"/>
<stop offset="0.475492" stop-color="#A04992"/>
<stop offset="1" stop-color="#615BA8"/>
</linearGradient>
</defs>
</svg>
