<svg width="34" height="34" viewBox="0 0 34 34" fill="none" xmlns="http://www.w3.org/2000/svg">
<path d="M22.3201 11.308C21.0464 10.0268 19.0314 9.80959 18.9451 9.80177C18.8114 9.78771 18.6839 9.88146 18.6289 10.0361C18.6239 10.0455 18.5801 10.1721 18.5314 10.369C19.3739 10.5471 20.4089 10.9049 21.3451 11.6315C21.4951 11.7471 21.5414 11.994 21.4489 12.1815C21.3876 12.3049 21.2839 12.3721 21.1764 12.3721C21.1189 12.3721 21.0601 12.3518 21.0076 12.3111C19.3976 11.0627 17.3876 11.0002 17.0001 11.0002C16.6126 11.0002 14.6014 11.0627 12.9926 12.3111C12.8426 12.4283 12.6451 12.3705 12.5526 12.183C12.4589 11.994 12.5051 11.7486 12.6551 11.6315C13.5914 10.9065 14.6264 10.5471 15.4689 10.3705C15.4201 10.1721 15.3764 10.0471 15.3726 10.0361C15.3164 9.88146 15.1901 9.78458 15.0551 9.80177C14.9689 9.80958 12.9539 10.0268 11.6626 11.3252C10.9889 12.1049 9.64014 16.6611 9.64014 20.6002C9.64014 20.6705 9.65514 20.7377 9.68264 20.7986C10.6126 22.8424 13.1514 23.3768 13.7301 23.4002C13.7326 23.4002 13.7364 23.4002 13.7401 23.4002C13.8426 23.4002 13.9389 23.3393 13.9989 23.2361L14.5839 22.2299C13.0051 21.7205 12.1989 20.8549 12.1526 20.8033C12.0201 20.658 12.0076 20.4049 12.1251 20.2393C12.2414 20.0736 12.4439 20.058 12.5764 20.2033C12.5951 20.2252 14.0801 21.8002 17.0001 21.8002C19.9251 21.8002 21.4101 20.219 21.4251 20.2033C21.5576 20.0596 21.7589 20.0736 21.8764 20.2408C21.9926 20.4065 21.9801 20.658 21.8476 20.8033C21.8014 20.8549 20.9951 21.7205 19.4164 22.2299L20.0014 23.2361C20.0614 23.3393 20.1576 23.4002 20.2601 23.4002C20.2639 23.4002 20.2676 23.4002 20.2701 23.4002C20.8489 23.3768 23.3876 22.8424 24.3176 20.7986C24.3451 20.7377 24.3601 20.6705 24.3601 20.6002C24.3601 16.6611 23.0114 12.1049 22.3201 11.308ZM14.9201 19.0002C14.3014 19.0002 13.8001 18.2846 13.8001 17.4002C13.8001 16.5158 14.3014 15.8002 14.9201 15.8002C15.5389 15.8002 16.0401 16.5158 16.0401 17.4002C16.0401 18.2846 15.5389 19.0002 14.9201 19.0002ZM19.0801 19.0002C18.4614 19.0002 17.9601 18.2846 17.9601 17.4002C17.9601 16.5158 18.4614 15.8002 19.0801 15.8002C19.6989 15.8002 20.2001 16.5158 20.2001 17.4002C20.2001 18.2846 19.6989 19.0002 19.0801 19.0002Z" fill="white"/>
<rect x="0.5" y="0.5" width="33" height="33" rx="9.5" stroke="#262626"/>
</svg>
