<svg width="20" height="21" viewBox="0 0 20 21" fill="none" xmlns="http://www.w3.org/2000/svg">
<path d="M14.1621 12.1665H14.1704" stroke="white" stroke-width="1.66667" stroke-linecap="round" stroke-linejoin="round"/>
<path d="M5.82845 6.33333H15.8285C16.2705 6.33333 16.6944 6.50893 17.007 6.82149C17.3195 7.13405 17.4951 7.55797 17.4951 8V16.3333C17.4951 16.7754 17.3195 17.1993 17.007 17.5118C16.6944 17.8244 16.2705 18 15.8285 18H4.16178C3.71976 18 3.29583 17.8244 2.98327 17.5118C2.67071 17.1993 2.49512 16.7754 2.49512 16.3333V4.66667C2.49512 4.22464 2.67071 3.80072 2.98327 3.48816C3.29583 3.17559 3.71976 3 4.16178 3H15.8285" stroke="white" stroke-width="1.66667" stroke-linecap="round" stroke-linejoin="round"/>
</svg>
